<svg width="24" height="24" viewBox="0 0 24 24" fill="none" xmlns="http://www.w3.org/2000/svg">
<g clip-path="url(#clip0_1_25)">
<path d="M21.1304 5.73912H18.6261L17.2435 3.65217C16.7218 2.86956 15.8087 2.39999 14.8696 2.39999H9.13045C8.19132 2.39999 7.27827 2.86956 6.75653 3.65217L5.37392 5.73912H2.86958C2.49243 5.73803 2.1188 5.81151 1.77015 5.95534C1.42151 6.09916 1.10474 6.31049 0.838059 6.57717C0.571378 6.84385 0.360049 7.16062 0.216225 7.50927C0.0724022 7.85791 -0.00107759 8.23155 1.19409e-05 8.60869V18.7304C-0.00107759 19.1076 0.0724022 19.4812 0.216225 19.8299C0.360049 20.1785 0.571378 20.4953 0.838059 20.7619C1.10474 21.0286 1.42151 21.24 1.77015 21.3838C2.1188 21.5276 2.49243 21.6011 2.86958 21.6H21.1304C21.5076 21.6011 21.8812 21.5276 22.2299 21.3838C22.5785 21.24 22.8953 21.0286 23.162 20.7619C23.4286 20.4953 23.64 20.1785 23.7838 19.8299C23.9276 19.4812 24.0011 19.1076 24 18.7304V8.60869C24.0011 8.23155 23.9276 7.85791 23.7838 7.50927C23.64 7.16062 23.4286 6.84385 23.162 6.57717C22.8953 6.31049 22.5785 6.09916 22.2299 5.95534C21.8812 5.81151 21.5076 5.73803 21.1304 5.73912ZM12 19.2522C8.4261 19.2522 5.53045 16.3565 5.53045 12.7826C5.53045 9.20869 8.4261 6.33912 12 6.33912C15.5739 6.33912 18.4696 9.23478 18.4696 12.8087C18.4696 16.3565 15.5739 19.2522 12 19.2522ZM20.7652 9.7826H19.6174C19.1478 9.75652 18.7826 9.36521 18.8087 8.89565C18.8348 8.45217 19.1739 8.11304 19.6174 8.08695H20.6609C21.1304 8.06086 21.5218 8.42608 21.5478 8.89565C21.5739 9.36521 21.2348 9.75652 20.7652 9.7826Z" fill="url(#paint0_linear_1_25)"/>
<path d="M12 9.20869C10.0174 9.20869 8.40002 10.8261 8.40002 12.8087C8.40002 14.7913 10.0174 16.3826 12 16.3826C13.9826 16.3826 15.6 14.7652 15.6 12.7826C15.6 10.8 13.9826 9.20869 12 9.20869Z" fill="url(#paint1_linear_1_25)"/>
</g>
<defs>
<linearGradient id="paint0_linear_1_25" x1="12" y1="2.39999" x2="12" y2="21.6" gradientUnits="userSpaceOnUse">
<stop stop-color="#4E79E6"/>
<stop offset="0.495" stop-color="#945DD6"/>
<stop offset="1" stop-color="#E445C4"/>
</linearGradient>
<linearGradient id="paint1_linear_1_25" x1="12" y1="9.20869" x2="12" y2="16.3826" gradientUnits="userSpaceOnUse">
<stop stop-color="#4E79E6"/>
<stop offset="0.495" stop-color="#945DD6"/>
<stop offset="1" stop-color="#E445C4"/>
</linearGradient>
<clipPath id="clip0_1_25">
<rect width="24" height="24" fill="white"/>
</clipPath>
</defs>
</svg>
