<svg width="24" height="24" viewBox="0 0 24 24" fill="none" xmlns="http://www.w3.org/2000/svg">
<path d="M16 22.5H4C3.3372 22.4992 2.70178 22.2356 2.23311 21.7669C1.76444 21.2982 1.50079 20.6628 1.5 20V4C1.50079 3.3372 1.76444 2.70178 2.23311 2.23311C2.70178 1.76444 3.3372 1.50079 4 1.5H11.73C12.0629 1.50022 12.3925 1.56664 12.6996 1.6954C13.0066 1.82416 13.285 2.01268 13.5185 2.25L17.7875 6.6195C18.2454 7.08696 18.5013 7.71563 18.5 8.37V12.095C18.5 12.2276 18.4473 12.3548 18.3536 12.4486C18.2598 12.5423 18.1326 12.595 18 12.595C17.8674 12.595 17.7402 12.5423 17.6464 12.4486C17.5527 12.3548 17.5 12.2276 17.5 12.095V8.37C17.5002 7.97748 17.3466 7.60052 17.072 7.32L12.8025 2.95C12.6626 2.8075 12.4957 2.69432 12.3115 2.61705C12.1274 2.53979 11.9297 2.5 11.73 2.5H4C3.60218 2.5 3.22064 2.65804 2.93934 2.93934C2.65804 3.22064 2.5 3.60218 2.5 4V20C2.5 20.3978 2.65804 20.7794 2.93934 21.0607C3.22064 21.342 3.60218 21.5 4 21.5H16C16.1886 21.5007 16.3755 21.4642 16.55 21.3925C16.6727 21.342 16.8103 21.3424 16.9328 21.3934C17.0552 21.4445 17.1523 21.5421 17.2028 21.6647C17.2532 21.7874 17.2529 21.9251 17.2018 22.0475C17.1508 22.1699 17.0532 22.267 16.9305 22.3175C16.6353 22.4387 16.3191 22.5008 16 22.5Z" fill="url(#paint0_linear_1_20)"/>
<path d="M17.795 8H14.5C13.8372 7.99921 13.2018 7.73556 12.7331 7.26689C12.2644 6.79822 12.0008 6.1628 12 5.5V2.155C12 2.02239 12.0527 1.89521 12.1464 1.80145C12.2402 1.70768 12.3674 1.655 12.5 1.655C12.6326 1.655 12.7598 1.70768 12.8536 1.80145C12.9473 1.89521 13 2.02239 13 2.155V5.5C13 5.89782 13.158 6.27935 13.4393 6.56066C13.7206 6.84196 14.1022 7 14.5 7H17.795C17.9276 7 18.0548 7.05268 18.1486 7.14645C18.2423 7.24021 18.295 7.36739 18.295 7.5C18.295 7.63261 18.2423 7.75978 18.1486 7.85355C18.0548 7.94732 17.9276 8 17.795 8ZM17 22.427C16.8028 22.4272 16.61 22.3689 16.446 22.2595L14.84 21.1885C13.8118 20.5049 12.9688 19.5775 12.386 18.489C11.8033 17.4005 11.4989 16.1847 11.5 14.95V14.094C11.501 13.869 11.5775 13.6509 11.7172 13.4746C11.8569 13.2982 12.0517 13.1739 12.2705 13.1215C13.7555 12.711 15.1681 12.0737 16.4585 11.232C16.62 11.128 16.808 11.0727 17 11.0727C17.1921 11.0727 17.38 11.128 17.5415 11.232C18.8318 12.0738 20.2445 12.7112 21.7295 13.1215C21.9483 13.1739 22.1431 13.2982 22.2828 13.4746C22.4226 13.6509 22.499 13.869 22.5 14.094V14.95C22.5015 16.185 22.1972 17.4012 21.6144 18.4901C21.0317 19.579 20.1884 20.5067 19.16 21.1905L17.5545 22.261C17.3902 22.37 17.1972 22.4277 17 22.427ZM17 12.072C15.6176 12.9738 14.1036 13.6556 12.512 14.093L12.5 14.95C12.4988 16.0203 12.7625 17.0743 13.2675 18.018C13.7725 18.9617 14.5033 19.7658 15.3945 20.3585L17 21.427L18.6055 20.3565C19.4965 19.764 20.227 18.9602 20.732 18.0169C21.2371 17.0736 21.5009 16.02 21.5 14.95V14.094C19.9045 13.6569 18.3865 12.9749 17 12.0725V12.072Z" fill="url(#paint1_linear_1_20)"/>
<path d="M16.5 18C16.3674 18 16.2402 17.9473 16.1465 17.8535L15.1465 16.8535C15.0554 16.7592 15.005 16.6329 15.0062 16.5018C15.0073 16.3707 15.0599 16.2453 15.1526 16.1526C15.2453 16.0599 15.3707 16.0073 15.5018 16.0062C15.6329 16.005 15.7592 16.0554 15.8535 16.1465L16.5 16.793L18.1465 15.1465C18.2408 15.0554 18.3671 15.005 18.4982 15.0062C18.6293 15.0073 18.7547 15.0599 18.8474 15.1526C18.9401 15.2453 18.9927 15.3707 18.9938 15.5018C18.995 15.6329 18.9446 15.7592 18.8535 15.8535L16.8535 17.8535C16.7598 17.9473 16.6326 18 16.5 18ZM9 6.5H5C4.86739 6.5 4.74021 6.44732 4.64645 6.35355C4.55268 6.25979 4.5 6.13261 4.5 6C4.5 5.86739 4.55268 5.74021 4.64645 5.64645C4.74021 5.55268 4.86739 5.5 5 5.5H9C9.13261 5.5 9.25979 5.55268 9.35355 5.64645C9.44732 5.74021 9.5 5.86739 9.5 6C9.5 6.13261 9.44732 6.25979 9.35355 6.35355C9.25979 6.44732 9.13261 6.5 9 6.5ZM12 9.5H5C4.86739 9.5 4.74021 9.44732 4.64645 9.35355C4.55268 9.25979 4.5 9.13261 4.5 9C4.5 8.86739 4.55268 8.74021 4.64645 8.64645C4.74021 8.55268 4.86739 8.5 5 8.5H12C12.1326 8.5 12.2598 8.55268 12.3536 8.64645C12.4473 8.74021 12.5 8.86739 12.5 9C12.5 9.13261 12.4473 9.25979 12.3536 9.35355C12.2598 9.44732 12.1326 9.5 12 9.5ZM13 12.5H5C4.86739 12.5 4.74021 12.4473 4.64645 12.3536C4.55268 12.2598 4.5 12.1326 4.5 12C4.5 11.8674 4.55268 11.7402 4.64645 11.6464C4.74021 11.5527 4.86739 11.5 5 11.5H13C13.1326 11.5 13.2598 11.5527 13.3536 11.6464C13.4473 11.7402 13.5 11.8674 13.5 12C13.5 12.1326 13.4473 12.2598 13.3536 12.3536C13.2598 12.4473 13.1326 12.5 13 12.5ZM10 15.5H5C4.86739 15.5 4.74021 15.4473 4.64645 15.3536C4.55268 15.2598 4.5 15.1326 4.5 15C4.5 14.8674 4.55268 14.7402 4.64645 14.6464C4.74021 14.5527 4.86739 14.5 5 14.5H10C10.1326 14.5 10.2598 14.5527 10.3536 14.6464C10.4473 14.7402 10.5 14.8674 10.5 15C10.5 15.1326 10.4473 15.2598 10.3536 15.3536C10.2598 15.4473 10.1326 15.5 10 15.5ZM10 18.5H5C4.86739 18.5 4.74021 18.4473 4.64645 18.3536C4.55268 18.2598 4.5 18.1326 4.5 18C4.5 17.8674 4.55268 17.7402 4.64645 17.6464C4.74021 17.5527 4.86739 17.5 5 17.5H10C10.1326 17.5 10.2598 17.5527 10.3536 17.6464C10.4473 17.7402 10.5 17.8674 10.5 18C10.5 18.1326 10.4473 18.2598 10.3536 18.3536C10.2598 18.4473 10.1326 18.5 10 18.5Z" fill="url(#paint2_linear_1_20)"/>
<defs>
<linearGradient id="paint0_linear_1_20" x1="10" y1="1.5" x2="10" y2="22.5" gradientUnits="userSpaceOnUse">
<stop stop-color="#4E79E6"/>
<stop offset="0.495" stop-color="#945DD6"/>
<stop offset="1" stop-color="#E445C4"/>
</linearGradient>
<linearGradient id="paint1_linear_1_20" x1="17" y1="1.655" x2="17" y2="22.427" gradientUnits="userSpaceOnUse">
<stop stop-color="#4E79E6"/>
<stop offset="0.495" stop-color="#945DD6"/>
<stop offset="1" stop-color="#E445C4"/>
</linearGradient>
<linearGradient id="paint2_linear_1_20" x1="11.7469" y1="5.5" x2="11.7469" y2="18.5" gradientUnits="userSpaceOnUse">
<stop stop-color="#4E79E6"/>
<stop offset="0.495" stop-color="#945DD6"/>
<stop offset="1" stop-color="#E445C4"/>
</linearGradient>
</defs>
</svg>
