<svg width="24" height="24" viewBox="0 0 24 24" fill="none" xmlns="http://www.w3.org/2000/svg">
<g clip-path="url(#clip0_1_14)">
<path d="M14.0972 13.252C14.0476 13.2693 14.0019 13.2962 13.9626 13.3311C13.9234 13.3661 13.8915 13.4084 13.8686 13.4557C13.8457 13.503 13.8324 13.5544 13.8294 13.6068C13.8264 13.6593 13.8337 13.7118 13.851 13.7614C13.8683 13.811 13.8952 13.8567 13.9301 13.896C13.9651 13.9352 14.0074 13.9671 14.0547 13.99C14.102 14.0129 14.1533 14.0262 14.2058 14.0292C14.2582 14.0322 14.3108 14.0249 14.3604 14.0076C15.9693 13.45 17.3286 12.3404 18.197 10.8757C19.0654 9.41102 19.3867 7.68602 19.104 6.00689C18.8213 4.32775 17.9528 2.8031 16.6526 1.70355C15.3525 0.604005 13.7048 0.000686646 12.002 0.000686646C10.2992 0.000686646 8.65152 0.604005 7.35136 1.70355C6.0512 2.8031 5.18268 4.32775 4.89995 6.00689C4.61723 7.68602 4.9386 9.41102 5.80701 10.8757C6.67542 12.3404 8.0347 13.45 9.64359 14.0076C9.74384 14.0424 9.85383 14.036 9.94936 13.9898C10.0449 13.9435 10.1181 13.8612 10.153 13.761C10.1878 13.6607 10.1814 13.5508 10.1352 13.4552C10.0889 13.3597 10.0066 13.2864 9.90639 13.2516C9.21482 13.0102 8.56994 12.6517 7.99999 12.1916V11.756C7.99919 11.1465 8.18343 10.5511 8.52833 10.0486C8.87324 9.54602 9.36256 9.16002 9.93159 8.94159C10.5362 9.36997 11.259 9.60004 12 9.60004C12.741 9.60004 13.4637 9.36997 14.0684 8.94159C14.6374 9.16002 15.1267 9.54602 15.4716 10.0486C15.8165 10.5511 16.0008 11.1465 16 11.756V12.1932C15.431 12.6525 14.7874 13.0106 14.0972 13.252ZM9.19999 5.99999C9.19999 5.44621 9.3642 4.90485 9.67187 4.4444C9.97954 3.98394 10.4168 3.62506 10.9285 3.41313C11.4401 3.20121 12.0031 3.14576 12.5462 3.25379C13.0894 3.36183 13.5883 3.62851 13.9799 4.02009C14.3715 4.41168 14.6381 4.91059 14.7462 5.45374C14.8542 5.99689 14.7988 6.55987 14.5869 7.07151C14.3749 7.58314 14.016 8.02044 13.5556 8.32811C13.0951 8.63578 12.5538 8.79999 12 8.79999C11.2576 8.79915 10.5459 8.50388 10.021 7.97896C9.49611 7.45404 9.20083 6.74234 9.19999 5.99999ZM14.72 8.34919C15.1717 7.82754 15.4639 7.18707 15.5619 6.50405C15.6599 5.82102 15.5595 5.12422 15.2728 4.49662C14.986 3.86901 14.5249 3.33703 13.9444 2.96404C13.3639 2.59104 12.6884 2.39274 11.9984 2.39274C11.3084 2.39274 10.6329 2.59104 10.0524 2.96404C9.47185 3.33703 9.01076 3.86901 8.724 4.49662C8.43723 5.12422 8.33688 5.82102 8.43488 6.50405C8.53289 7.18707 8.82512 7.82754 9.27679 8.34919C8.69753 8.64536 8.20374 9.08488 7.84245 9.62592C7.48115 10.1669 7.26438 10.7915 7.21279 11.44C4.93279 8.86999 5.08799 4.95839 7.56519 2.57759C10.0424 0.197193 13.9572 0.197193 16.4348 2.57759C18.912 4.95839 19.0676 8.86999 16.7872 11.44C16.7354 10.7911 16.5182 10.1663 16.1563 9.62522C15.7945 9.08414 15.2999 8.64482 14.72 8.34919Z" fill="url(#paint0_linear_1_14)"/>
<path d="M8.56 23.8444C8.67987 23.9329 8.82221 23.9858 8.97075 23.9972C9.11929 24.0086 9.26804 23.9779 9.4 23.9088L12.0028 22.5564L14.6052 23.9092C14.7375 23.978 14.8864 24.0084 15.0351 23.9971C15.1838 23.9857 15.3263 23.9331 15.4466 23.845C15.567 23.7569 15.6603 23.637 15.7161 23.4987C15.7719 23.3604 15.7879 23.2093 15.7624 23.0624L15.268 20.2096L17.36 18.1932C17.4677 18.0893 17.5442 17.9574 17.5806 17.8122C17.6171 17.6671 17.6121 17.5147 17.5663 17.3722C17.5205 17.2298 17.4356 17.1031 17.3214 17.0064C17.2071 16.9098 17.0681 16.8472 16.92 16.8256L14.016 16.4084L12.72 13.8032C12.654 13.6695 12.5518 13.557 12.425 13.4787C12.2982 13.4003 12.1519 13.3592 12.0028 13.36C11.8541 13.3595 11.7083 13.4006 11.5818 13.4787C11.4553 13.5568 11.3533 13.6688 11.2872 13.802L9.984 16.4084L7.0864 16.8252C6.93824 16.8467 6.79909 16.9093 6.68477 17.006C6.57045 17.1026 6.48554 17.2294 6.4397 17.372C6.39386 17.5145 6.38893 17.667 6.42547 17.8122C6.46201 17.9573 6.53855 18.0894 6.6464 18.1932L8.7392 20.2096L8.2444 23.0624C8.21849 23.2092 8.23434 23.3604 8.29014 23.4986C8.34593 23.6369 8.43944 23.7567 8.56 23.8444ZM7.2 17.6172L10.3048 17.1704C10.3687 17.1612 10.4295 17.1367 10.4818 17.099C10.5342 17.0612 10.5767 17.0113 10.6056 16.9536L12.0024 14.16L13.3932 16.9528C13.4221 17.0107 13.4645 17.0608 13.517 17.0987C13.5695 17.1366 13.6303 17.1612 13.6944 17.1704L16.8056 17.6172L14.56 19.7808C14.513 19.8262 14.4777 19.8824 14.4575 19.9445C14.4372 20.0066 14.4324 20.0728 14.4436 20.1372L14.9744 23.2L12.1876 21.7516C12.1306 21.722 12.0674 21.7066 12.0032 21.7066C11.939 21.7066 11.8758 21.722 11.8188 21.7516L9.0316 23.2L9.5624 20.138C9.57359 20.0736 9.56883 20.0074 9.54854 19.9453C9.52825 19.8832 9.49304 19.827 9.446 19.7816L7.2 17.6172Z" fill="url(#paint1_linear_1_14)"/>
<path d="M1.87999 17.6888L1.48919 19.9484C1.46556 20.0814 1.47964 20.2185 1.52983 20.3439C1.58003 20.4694 1.66434 20.5783 1.77322 20.6584C1.88211 20.7384 2.01122 20.7864 2.14595 20.7968C2.28068 20.8073 2.41565 20.7798 2.53559 20.7176L4.59999 19.6432L6.66319 20.72C6.70979 20.7443 6.7607 20.7591 6.81304 20.7637C6.86537 20.7683 6.9181 20.7625 6.9682 20.7467C7.01831 20.731 7.06482 20.7055 7.10507 20.6717C7.14532 20.6379 7.17853 20.5966 7.20279 20.55C7.22706 20.5034 7.24192 20.4525 7.24651 20.4001C7.2511 20.3478 7.24534 20.2951 7.22955 20.245C7.21376 20.1949 7.18826 20.1484 7.1545 20.1081C7.12074 20.0679 7.07939 20.0347 7.03279 20.0104L4.78479 18.8384C4.72773 18.8087 4.66434 18.7931 4.59999 18.7931C4.53565 18.7931 4.47226 18.8087 4.41519 18.8384L2.30439 19.938L2.70439 17.618C2.71559 17.5536 2.71083 17.4874 2.69054 17.4253C2.67025 17.3632 2.63504 17.307 2.58799 17.2616L0.889194 15.6216L3.23999 15.284C3.30395 15.2748 3.36472 15.2502 3.4171 15.2124C3.46948 15.1745 3.51193 15.1246 3.54079 15.0668L4.59999 12.9492L5.65519 15.0664C5.68409 15.1244 5.72663 15.1745 5.77917 15.2124C5.8317 15.2503 5.89266 15.2749 5.95679 15.284L8.46839 15.644C8.57342 15.659 8.68011 15.6317 8.76499 15.568C8.84987 15.5044 8.90598 15.4096 8.92099 15.3046C8.93601 15.1996 8.90868 15.0929 8.84503 15.008C8.78138 14.9231 8.68662 14.867 8.58159 14.852L6.27759 14.522L5.24679 12.4532C5.18694 12.3325 5.09445 12.2311 4.97983 12.1604C4.86522 12.0897 4.73307 12.0525 4.59839 12.0532H4.59599C4.32399 12.0528 4.07599 12.2068 3.95599 12.4508L2.91999 14.522L0.622794 14.8516C0.488044 14.8696 0.361133 14.9253 0.256741 15.0124C0.15235 15.0995 0.0747428 15.2143 0.0328981 15.3436C-0.00894649 15.473 -0.0133191 15.6115 0.0202861 15.7433C0.0538912 15.875 0.124101 15.9945 0.222794 16.088L1.87999 17.6888ZM23.964 15.3424C23.9231 15.2137 23.8465 15.0993 23.7431 15.0125C23.6397 14.9257 23.5138 14.87 23.38 14.852L21.08 14.522L20.0464 12.4512C19.9268 12.2068 19.6784 12.0512 19.4064 12.0512H19.404C19.2693 12.0505 19.137 12.0876 19.0223 12.1583C18.9076 12.229 18.8151 12.3305 18.7552 12.4512L17.7248 14.5196L15.4204 14.8496C15.3154 14.8646 15.2206 14.9207 15.157 15.0056C15.0933 15.0905 15.066 15.1972 15.081 15.3022C15.096 15.4072 15.1521 15.502 15.237 15.5656C15.3219 15.6293 15.4286 15.6566 15.5336 15.6416L18.0456 15.2816C18.1097 15.2725 18.1707 15.2479 18.2232 15.21C18.2758 15.1721 18.3183 15.122 18.3472 15.064L19.4 12.9492L20.4572 15.0668C20.4861 15.1246 20.5285 15.1745 20.5809 15.2124C20.6333 15.2502 20.694 15.2748 20.758 15.284L23.1076 15.6212L21.4088 17.2612C21.3618 17.3066 21.3265 17.3628 21.3063 17.4249C21.286 17.487 21.2812 17.5532 21.2924 17.6176L21.6944 19.9376L19.5836 18.8368C19.5265 18.8071 19.4631 18.7915 19.3988 18.7915C19.3345 18.7915 19.2711 18.8071 19.214 18.8368L16.966 20.0088C16.9194 20.0331 16.878 20.0663 16.8443 20.1065C16.8105 20.1468 16.785 20.1933 16.7692 20.2434C16.7535 20.2935 16.7477 20.3462 16.7523 20.3985C16.7569 20.4509 16.7717 20.5018 16.796 20.5484C16.8203 20.595 16.8535 20.6363 16.8937 20.6701C16.934 20.7039 16.9805 20.7294 17.0306 20.7451C17.0807 20.7609 17.1334 20.7667 17.1858 20.7621C17.2381 20.7575 17.289 20.7427 17.3356 20.7184L19.4 19.6432L21.464 20.72C21.5838 20.7822 21.7185 20.8097 21.8531 20.7993C21.9876 20.7889 22.1166 20.7411 22.2254 20.6612C22.3342 20.5813 22.4185 20.4726 22.4687 20.3474C22.5189 20.2221 22.5331 20.0853 22.5096 19.9524L22.12 17.6888L23.7784 16.0888C23.8767 15.9946 23.9464 15.8746 23.9792 15.7424C24.0121 15.6103 24.0068 15.4716 23.964 15.3424ZM9.79999 18.8556C9.81919 18.8556 9.83839 18.854 9.85759 18.8512L11.362 18.6348C11.4259 18.6256 11.4867 18.6011 11.539 18.5633C11.5914 18.5256 11.6339 18.4757 11.6628 18.418L12.3588 17.0264C12.3838 16.9792 12.3991 16.9276 12.4039 16.8744C12.4087 16.8213 12.4028 16.7677 12.3866 16.7168C12.3704 16.666 12.3442 16.6189 12.3095 16.5783C12.2749 16.5377 12.2325 16.5045 12.1848 16.4805C12.1371 16.4565 12.0851 16.4423 12.0318 16.4387C11.9786 16.4351 11.9252 16.4421 11.8747 16.4595C11.8242 16.4768 11.7777 16.504 11.7379 16.5395C11.698 16.5751 11.6657 16.6182 11.6428 16.6664L11.0428 17.8708L9.74479 18.0576C9.64458 18.0719 9.55351 18.1236 9.48994 18.2024C9.42637 18.2812 9.39503 18.3811 9.40223 18.4821C9.40944 18.583 9.45465 18.6775 9.52877 18.7465C9.60288 18.8154 9.70037 18.8537 9.80159 18.8536L9.79999 18.8556Z" fill="url(#paint2_linear_1_14)"/>
</g>
<defs>
<linearGradient id="paint0_linear_1_14" x1="12.002" y1="0.000686646" x2="12.002" y2="14.0299" gradientUnits="userSpaceOnUse">
<stop stop-color="#4E79E6"/>
<stop offset="0.495" stop-color="#945DD6"/>
<stop offset="1" stop-color="#E445C4"/>
</linearGradient>
<linearGradient id="paint1_linear_1_14" x1="12.003" y1="13.36" x2="12.003" y2="23.9995" gradientUnits="userSpaceOnUse">
<stop stop-color="#4E79E6"/>
<stop offset="0.495" stop-color="#945DD6"/>
<stop offset="1" stop-color="#E445C4"/>
</linearGradient>
<linearGradient id="paint2_linear_1_14" x1="11.9992" y1="12.0512" x2="11.9992" y2="20.8014" gradientUnits="userSpaceOnUse">
<stop stop-color="#4E79E6"/>
<stop offset="0.495" stop-color="#945DD6"/>
<stop offset="1" stop-color="#E445C4"/>
</linearGradient>
<clipPath id="clip0_1_14">
<rect width="24" height="24" fill="white"/>
</clipPath>
</defs>
</svg>
