<svg width="24" height="24" viewBox="0 0 24 24" fill="none" xmlns="http://www.w3.org/2000/svg">
<path d="M2.14586 15.9238L6.10231 6.98918C6.37815 6.37308 6.88064 6 7.56188 6H7.70781C8.38862 6 8.87524 6.37301 9.1508 6.98918L13.1074 15.9238C13.1885 16.1022 13.2372 16.2643 13.2372 16.4265C13.2372 17.0913 12.7183 17.6264 12.0534 17.6264C11.4697 17.6264 11.0805 17.2859 10.8535 16.7669L10.0915 14.9834H5.09718L4.30261 16.8481C4.09176 17.3345 3.67028 17.6264 3.15134 17.6264C2.50249 17.6264 2 17.1075 2 16.4589C2 16.2805 2.06478 16.1022 2.14586 15.9238ZM9.16717 12.7781L7.5942 9.03233L6.02137 12.7781H9.16717ZM14.4203 15.0319V14.9995C14.4203 13.1023 15.8635 12.2267 17.9228 12.2267C18.7985 12.2267 19.4309 12.3726 20.0471 12.5835V12.4375C20.0471 11.4159 19.4146 10.8485 18.1823 10.8485C17.5013 10.8485 16.9499 10.9457 16.4797 11.0917C16.3338 11.1403 16.2365 11.1565 16.1228 11.1565C15.5554 11.1565 15.1014 10.7187 15.1014 10.1512C15.1014 9.71335 15.377 9.34041 15.7661 9.19442C16.5444 8.90256 17.3877 8.7404 18.539 8.7404C19.8848 8.7404 20.8578 9.09711 21.474 9.71328C22.1226 10.3618 22.4144 11.3186 22.4144 12.4861V16.4426C22.4144 17.1075 21.8793 17.6263 21.2145 17.6263C20.501 17.6263 20.0308 17.1237 20.0308 16.6047V16.5885C19.4309 17.2533 18.6037 17.6911 17.404 17.6911C15.7661 17.6912 14.4203 16.7509 14.4203 15.0319ZM20.0794 14.4644V14.0266C19.6578 13.832 19.1065 13.7023 18.5065 13.7023C17.4524 13.7023 16.8039 14.1239 16.8039 14.9022V14.9346C16.8039 15.5995 17.3553 15.9886 18.1498 15.9886C19.301 15.9886 20.0794 15.3563 20.0794 14.4644Z" fill="url(#paint0_linear_1_6)"/>
<defs>
<linearGradient id="paint0_linear_1_6" x1="12.2072" y1="6" x2="12.2072" y2="17.6911" gradientUnits="userSpaceOnUse">
<stop stop-color="#4E79E6"/>
<stop offset="0.495" stop-color="#945DD6"/>
<stop offset="1" stop-color="#E445C4"/>
</linearGradient>
</defs>
</svg>
