<svg width="24" height="24" viewBox="0 0 24 24" fill="none" xmlns="http://www.w3.org/2000/svg">
<g clip-path="url(#clip0_0_3)">
<path d="M12 16.7985C14.8793 16.7985 17.2218 14.456 17.2218 11.5766V5.22183C17.2218 2.34253 14.8793 0 12 0C9.12066 0 6.77817 2.34253 6.77817 5.22183V11.5766C6.77817 14.456 9.12066 16.7985 12 16.7985ZM8.27817 5.22183C8.27817 3.16959 9.94777 1.5 12 1.5C14.0522 1.5 15.7218 3.16959 15.7218 5.22183V11.5766C15.7218 13.6288 14.0522 15.2985 12 15.2985C9.94777 15.2985 8.27817 13.6288 8.27817 11.5766V5.22183ZM20.6057 13.0863C20.2545 15.082 19.2024 16.9104 17.6432 18.2349C16.2572 19.4123 14.5427 20.125 12.75 20.2813V22.5H17.625C18.0392 22.5 18.375 22.8358 18.375 23.25C18.375 23.6642 18.0392 24 17.625 24H6.375C5.96077 24 5.625 23.6642 5.625 23.25C5.625 22.8358 5.96077 22.5 6.375 22.5H11.25V20.2813C9.45727 20.125 7.74286 19.4123 6.35677 18.2349C4.79761 16.9104 3.74555 15.082 3.39431 13.0863C3.32255 12.6784 3.59498 12.2895 4.00294 12.2177C4.41084 12.1459 4.79981 12.4184 4.87158 12.8263C5.48222 16.2959 8.48016 18.8141 12 18.8141C15.5198 18.8141 18.5178 16.2959 19.1284 12.8263C19.2002 12.4184 19.5891 12.1458 19.9971 12.2177C20.4051 12.2895 20.6775 12.6784 20.6057 13.0863ZM20.617 5.05162V9.38452C20.617 9.79875 20.2813 10.1345 19.867 10.1345C19.4528 10.1345 19.117 9.79875 19.117 9.38452V5.05162C19.117 4.63739 19.4528 4.30162 19.867 4.30162C20.2813 4.30162 20.617 4.63739 20.617 5.05162ZM24 6.08353V8.35247C24 8.7667 23.6642 9.10247 23.25 9.10247C22.8358 9.10247 22.5 8.7667 22.5 8.35247V6.08353C22.5 5.6693 22.8358 5.33353 23.25 5.33353C23.6642 5.33353 24 5.6693 24 6.08353ZM3.38297 9.38447V5.05158C3.38297 4.63734 3.71873 4.30158 4.13297 4.30158C4.5472 4.30158 4.88297 4.63734 4.88297 5.05158V9.38447C4.88297 9.7987 4.5472 10.1345 4.13297 10.1345C3.71873 10.1345 3.38297 9.7987 3.38297 9.38447ZM1.5 6.08353V8.35247C1.5 8.7667 1.16423 9.10247 0.75 9.10247C0.335766 9.10247 0 8.7667 0 8.35247V6.08353C0 5.6693 0.335766 5.33353 0.75 5.33353C1.16423 5.33353 1.5 5.6693 1.5 6.08353Z" fill="url(#paint0_linear_0_3)"/>
</g>
<defs>
<linearGradient id="paint0_linear_0_3" x1="12" y1="0" x2="12" y2="24" gradientUnits="userSpaceOnUse">
<stop stop-color="#4E79E6"/>
<stop offset="0.495" stop-color="#945DD6"/>
<stop offset="1" stop-color="#E445C4"/>
</linearGradient>
<clipPath id="clip0_0_3">
<rect width="24" height="24" fill="white"/>
</clipPath>
</defs>
</svg>
